<?xml version="1.0" encoding="UTF-8"?>
<svg xmlns="http://www.w3.org/2000/svg" xmlns:xlink="http://www.w3.org/1999/xlink" viewBox="0 0 48 48" width="48px" height="48px">
<g id="surface87847331">
<path style=" stroke:none;fill-rule:nonzero;fill:rgb(45.490196%,69.803923%,46.27451%);fill-opacity:1;" d="M 24 4 C 12.976562 4 4 12.976562 4 24 C 4 35.023438 12.976562 44 24 44 C 35.023438 44 44 35.023438 44 24 C 44 12.976562 35.023438 4 24 4 Z M 24 8 C 32.859375 8 40 15.140625 40 24 C 40 32.859375 32.859375 40 24 40 C 15.140625 40 8 32.859375 8 24 C 8 15.140625 15.140625 8 24 8 Z M 32.585938 16.585938 L 20 29.171875 L 15.414062 24.585938 L 12.585938 27.414062 L 20 34.828125 L 35.414062 19.414062 Z M 32.585938 16.585938 "/>
</g>
</svg>
